HIERARCHY
ROOT Hips
{
	OFFSET 0.000000 0.000000 0.000000
	CHANNELS 6 Xposition Yposition Zposition Zrotation Yrotation Xrotation 
	JOINT LeftUpLeg_virtual
	{
		OFFSET 0.000000 0.000000 0.000000
		CHANNELS 3 Zrotation Yrotation Xrotation
		JOINT LeftUpLeg
		{
			OFFSET 10.205400 -3.823500 0.155100
			CHANNELS 3 Zrotation Yrotation Xrotation
			JOINT LeftLeg
			{
				OFFSET 0.708757 -12.982077 0.567790
				CHANNELS 3 Zrotation Yrotation Xrotation
				JOINT LeftFoot
				{
					OFFSET -0.708756 -10.717838 -2.184338
					CHANNELS 3 Zrotation Yrotation Xrotation
					JOINT LeftToeBase
					{
						OFFSET 0.108149 -7.191104 7.560241
						CHANNELS 3 Zrotation Yrotation Xrotation
						End Site
						{
							OFFSET 0.000000 0.000000 0.000000
						}
					}
				}
			}
		}
	}
	JOINT RightUpLeg_virtual
	{
		OFFSET 0.000000 0.000000 0.000000
		CHANNELS 3 Zrotation Yrotation Xrotation
		JOINT RightUpLeg
		{
			OFFSET -10.205400 -3.823500 0.005500
			CHANNELS 3 Zrotation Yrotation Xrotation
			JOINT RightLeg
			{
				OFFSET -0.708756 -12.982134 0.610632
				CHANNELS 3 Zrotation Yrotation Xrotation
				JOINT RightFoot
				{
					OFFSET 0.708754 -10.717769 -1.945823
					CHANNELS 3 Zrotation Yrotation Xrotation
					JOINT RightToeBase
					{
						OFFSET -0.108140 -7.191069 7.372968
						CHANNELS 3 Zrotation Yrotation Xrotation
						End Site
						{
							OFFSET 0.000000 0.000000 0.000000
						}
					}
				}
			}
		}
	}
	JOINT Spine_virtual
	{
		OFFSET 0.000000 0.000000 0.000000
		CHANNELS 3 Zrotation Yrotation Xrotation
		JOINT Spine
		{
			OFFSET 0.000000 6.876099 0.125700
			CHANNELS 3 Zrotation Yrotation Xrotation
			JOINT Spine1
			{
				OFFSET 0.000000 8.022060 0.146608
				CHANNELS 3 Zrotation Yrotation Xrotation
				JOINT Spine2
				{
					OFFSET 0.000000 9.168068 0.167552
					CHANNELS 3 Zrotation Yrotation Xrotation
					JOINT Neck_virtual
					{
						OFFSET 0.000000 0.000000 0.000000
						CHANNELS 3 Zrotation Yrotation Xrotation
						JOINT Neck
						{
							OFFSET 0.000000 10.314075 0.188496
							CHANNELS 3 Zrotation Yrotation Xrotation
							JOINT Head
							{
								OFFSET 0.000000 7.643700 -2.377400
								CHANNELS 3 Zrotation Yrotation Xrotation
								End Site
								{
									OFFSET 0.000000 0.000000 0.000000
								}
							}
						}
					}
					JOINT LeftShoulder_virtual
					{
						OFFSET 0.000000 0.000000 0.000000
						CHANNELS 3 Zrotation Yrotation Xrotation
						JOINT LeftShoulder
						{
							OFFSET 4.392200 8.824978 0.174984
							CHANNELS 3 Zrotation Yrotation Xrotation
							JOINT LeftArm
							{
								OFFSET 8.771219 -2.981674 -0.026999
								CHANNELS 3 Zrotation Yrotation Xrotation
								JOINT LeftForeArm
								{
									OFFSET 8.512804 0.000000 -0.000000
									CHANNELS 3 Zrotation Yrotation Xrotation
									JOINT LeftHand
									{
										OFFSET 18.484802 0.000000 -0.000000
										CHANNELS 3 Zrotation Yrotation Xrotation
										End Site
										{
											OFFSET 0.000000 0.000000 0.000000
										}
									}
								}
							}
						}
					}
					JOINT RightShoulder_virtual
					{
						OFFSET 0.000000 0.000000 0.000000
						CHANNELS 3 Zrotation Yrotation Xrotation
						JOINT RightShoulder
						{
							OFFSET -4.392200 8.824993 0.141379
							CHANNELS 3 Zrotation Yrotation Xrotation
							JOINT RightArm
							{
								OFFSET -8.771282 -2.981682 -0.094208
								CHANNELS 3 Zrotation Yrotation Xrotation
								JOINT RightForeArm
								{
									OFFSET -8.494598 0.000000 0.000000
									CHANNELS 3 Zrotation Yrotation Xrotation
									JOINT RightHand
									{
										OFFSET -18.483803 0.000000 0.000001
										CHANNELS 3 Zrotation Yrotation Xrotation
										End Site
										{
											OFFSET 0.000000 0.000000 0.000000
										}
									}
								}
							}
						}
					}
				}
			}
		}
	}
}
MOTION
Frames: 11
Frame Time: 0.033333
2.482604 36.624218 36.827606 -179.977370 1.974595 -179.879206 -4.033318 -3.169187 9.342349 -6.165230 -4.643547 -17.381660 16.420087 9.755067 20.109522 -3.362856 2.124726 11.189183 0.000000 0.000000 0.000000 1.480859 -0.449395 6.250670 -0.594289 4.152213 -8.750292 -8.011596 0.404012 13.482673 3.228057 5.495626 10.631274 0.000000 0.000000 0.000000 0.183984 0.696544 -3.214170 -3.908115 4.615188 -6.574948 -0.796594 -3.625209 3.476398 -0.021288 0.018750 0.032518 -1.461769 -1.674694 6.210834 0.620495 -3.662669 5.641574 0.000000 0.000000 0.000000 0.080371 -0.734497 3.348736 7.637588 2.137738 -4.948655 0.473066 19.395864 -40.503206 -3.406826 -43.489365 -4.221615 0.000000 0.000000 0.000000 -3.451718 0.029304 2.994873 6.008999 -13.888247 -10.258590 12.485212 -26.111323 -27.566065 -1.667224 39.010561 -4.771474 0.000000 0.000000 0.000000 
2.489166 36.625202 36.836479 -179.915434 2.061838 -179.820576 -3.913503 -3.324072 9.511379 -6.129104 -4.686108 -17.144794 16.316318 9.348263 20.336629 -3.719330 1.888734 11.750602 0.000000 0.000000 0.000000 1.549453 -0.333342 6.261636 -0.608151 4.128402 -8.692238 -8.136670 0.133794 13.605395 3.118843 5.442612 10.875415 0.000000 0.000000 0.000000 0.223282 0.707035 -3.250048 -3.888997 4.587542 -6.587769 -0.762216 -3.658334 3.459263 0.018036 -0.002972 0.064338 -1.511338 -1.544281 6.192767 0.599168 -3.675942 5.658240 0.000000 0.000000 0.000000 0.041792 -0.691477 3.310955 7.616777 2.153353 -4.903250 0.441478 19.317629 -40.477040 -3.428248 -43.487664 -4.196258 0.000000 0.000000 0.000000 -3.494460 0.053455 3.042055 6.019794 -13.860884 -10.513217 12.509340 -26.123011 -27.473068 -1.563820 39.010735 -4.691512 0.000000 0.000000 0.000000 
2.497617 36.629486 36.847069 -179.960158 2.134825 -179.768434 -3.972186 -3.307889 9.494246 -6.100681 -4.679750 -17.171623 16.420304 9.434719 20.338340 -3.758338 1.875021 11.760358 0.000000 0.000000 0.000000 1.494351 -0.291133 6.208033 -0.619482 4.126279 -8.720235 -8.139607 0.029739 13.585029 3.201330 5.463550 10.935439 0.000000 0.000000 0.000000 0.188268 0.735720 -3.266909 -3.917145 4.628077 -6.565343 -0.764371 -3.603496 3.471836 0.005502 0.047189 0.056056 -1.470558 -1.654896 6.239592 0.607393 -3.664318 5.657839 0.000000 0.000000 0.000000 0.055000 -0.766899 3.351834 7.559744 2.129196 -5.030784 0.405961 19.359101 -40.429775 -3.442266 -43.475800 -4.155504 0.000000 0.000000 0.000000 -3.468988 0.002479 3.038216 6.031284 -13.950454 -10.495878 12.556355 -26.236027 -27.524624 -1.577996 38.989319 -4.703407 0.000000 0.000000 0.000000 
2.506260 36.631516 36.857899 -179.915365 2.207742 -179.787805 -3.933878 -3.298195 9.512119 -6.052784 -4.727282 -17.162290 16.289330 9.359236 20.327319 -3.780057 2.108994 11.755753 0.000000 0.000000 0.000000 1.567191 -0.273478 6.200790 -0.646366 4.078732 -8.718248 -8.118775 -0.055801 13.672648 3.234848 5.484983 10.961307 0.000000 0.000000 0.000000 0.224174 0.790424 -3.253809 -3.901125 4.622682 -6.524136 -0.752074 -3.607921 3.466715 0.004406 0.041341 0.018964 -1.465226 -1.653872 6.241006 0.627274 -3.647409 5.636676 0.000000 0.000000 0.000000 0.074283 -0.753531 3.378929 7.516800 2.102017 -5.029019 0.340978 19.324458 -40.381253 -3.417875 -43.487896 -4.158060 0.000000 0.000000 0.000000 -3.468637 -0.030247 3.057959 6.063419 -13.971881 -10.586332 12.643326 -26.304098 -27.556803 -1.603869 38.999424 -4.753500 0.000000 0.000000 0.000000 
2.513486 36.630390 36.864216 -179.915379 2.173343 -179.818582 -3.916630 -3.379184 9.523140 -6.029718 -4.730605 -17.174179 16.220168 9.330032 20.328958 -3.790078 2.150240 11.784297 0.000000 0.000000 0.000000 1.563348 -0.370327 6.191008 -0.650831 4.029324 -8.772555 -8.065770 0.036423 13.612483 3.245214 5.472632 10.993487 0.000000 0.000000 0.000000 0.226780 0.739874 -3.222349 -3.905733 4.617676 -6.481941 -0.740929 -3.594201 3.501098 0.013363 0.051241 0.078994 -1.459597 -1.667002 6.180745 0.623563 -3.662552 5.683711 0.000000 0.000000 0.000000 0.094432 -0.771622 3.344223 7.512840 2.102075 -5.207172 0.276358 19.331431 -40.486732 -3.586286 -43.550321 -3.969499 0.000000 0.000000 0.000000 -3.452475 -0.025983 2.957956 6.104780 -14.033787 -10.632440 12.751063 -26.422754 -27.724559 -1.534078 39.093954 -4.701067 0.000000 0.000000 0.000000 
2.520918 36.628128 36.870346 -179.909191 2.221087 -179.759569 -3.913110 -3.420050 9.509981 -6.006044 -4.690595 -17.222585 16.231840 9.366714 20.356863 -3.802282 2.188537 11.778654 0.000000 0.000000 0.000000 1.584978 -0.358694 6.143975 -0.666634 4.003798 -8.865032 -8.046928 0.032566 13.692263 3.280051 5.447805 10.969483 0.000000 0.000000 0.000000 0.237980 0.690950 -3.230682 -3.900236 4.596876 -6.465803 -0.738221 -3.611769 3.510507 0.018438 0.022765 0.041732 -1.463113 -1.501771 6.211137 0.670563 -3.646105 5.664810 0.000000 0.000000 0.000000 0.067711 -0.708770 3.334341 7.443644 2.151620 -5.027243 0.175381 19.503100 -40.316021 -3.273163 -43.524995 -4.287778 0.000000 0.000000 0.000000 -3.482828 0.037583 3.035697 6.182133 -13.949487 -10.709773 12.876649 -26.461715 -27.910834 -1.597151 39.161108 -4.782727 0.000000 0.000000 0.000000 
2.526013 36.624992 36.879128 179.998543 2.279757 -179.804921 -3.978617 -3.447662 9.525238 -6.043468 -4.613152 -17.220283 16.408756 9.538420 20.422575 -3.943344 2.133391 11.771080 0.000000 0.000000 0.000000 1.513267 -0.414957 6.126886 -0.656220 4.024318 -8.917736 -8.039800 0.014349 13.814900 3.389578 5.438030 10.949751 0.000000 0.000000 0.000000 0.214595 0.701767 -3.175611 -3.930328 4.662443 -6.404686 -0.760446 -3.716875 3.522712 -0.009293 0.069002 0.070603 -1.419916 -1.752770 6.176487 0.756740 -3.634785 5.778720 0.000000 0.000000 0.000000 0.139886 -0.725736 3.305920 7.468205 2.085152 -4.952910 0.071758 19.698313 -40.416354 -3.344777 -43.547643 -4.074688 0.000000 0.000000 0.000000 -3.434033 -0.000239 2.992640 6.229285 -13.964690 -10.939890 12.870873 -26.592727 -28.024451 -1.499248 39.349796 -4.635326 0.000000 0.000000 0.000000 
2.520733 36.618694 36.883297 -179.943328 2.387608 -179.790523 -3.893858 -3.517870 9.509726 -6.060329 -4.556895 -17.214170 16.308163 9.503681 20.469824 -3.867451 2.252743 11.759477 0.000000 0.000000 0.000000 1.562410 -0.479108 6.073279 -0.720417 4.068195 -8.979470 -8.059747 -0.005556 13.954468 3.452466 5.455518 10.860129 0.000000 0.000000 0.000000 0.265454 0.608388 -3.141032 -3.897527 4.592945 -6.344461 -0.743900 -3.599859 3.504796 0.016992 0.006024 0.038209 -1.448738 -1.596030 6.217271 0.777141 -3.720278 5.840488 0.000000 0.000000 0.000000 0.096442 -0.674911 3.338209 7.424570 2.036338 -5.085257 0.067804 19.900277 -40.418881 -3.261702 -43.451082 -4.032410 0.000000 0.000000 0.000000 -3.462117 0.000878 3.032430 6.320537 -13.913943 -11.015737 13.006027 -26.796895 -28.279614 -1.535856 39.547130 -4.658656 0.000000 0.000000 0.000000 
2.506640 36.616486 36.884022 179.999704 2.668950 -179.789608 -3.947054 -3.433837 9.512280 -6.130057 -4.411982 -17.164194 16.351837 9.742519 20.535654 -3.954899 2.250161 11.704830 0.000000 0.000000 0.000000 1.533504 -0.418756 5.997432 -0.764748 4.156736 -8.982400 -8.087540 0.108988 14.089205 3.570492 5.396480 10.863591 0.000000 0.000000 0.000000 0.258434 0.697508 -3.093553 -3.901169 4.588476 -6.276601 -0.749473 -3.573508 3.528205 -0.011310 0.016225 0.059182 -1.403974 -1.628047 6.155742 0.877145 -3.772798 5.925208 0.000000 0.000000 0.000000 0.153556 -0.679629 3.297454 7.381959 1.908559 -4.892942 0.038886 20.154693 -40.285477 -3.236104 -43.353984 -3.933230 0.000000 0.000000 0.000000 -3.434310 0.074521 2.977421 6.408024 -13.791459 -10.938607 13.007055 -27.111027 -28.506457 -1.560300 39.725832 -4.642159 0.000000 0.000000 0.000000 
2.480844 36.617207 36.870972 -179.979788 2.735450 -179.750362 -3.916308 -3.529861 9.431293 -6.219546 -4.291324 -17.159146 16.392930 9.782649 20.604437 -4.011357 2.269829 11.663140 0.000000 0.000000 0.000000 1.548284 -0.543520 5.914556 -0.820995 4.304889 -8.953903 -8.151133 0.171134 13.931923 3.706845 5.332843 10.813106 0.000000 0.000000 0.000000 0.287777 0.542283 -3.127543 -3.862997 4.552651 -6.233380 -0.729915 -3.526723 3.589809 -0.009669 0.029300 0.006886 -1.419466 -1.742842 6.157150 0.983642 -3.865304 6.007322 0.000000 0.000000 0.000000 0.154239 -0.645171 3.294766 7.298488 1.672097 -5.048382 0.021614 20.467654 -40.023133 -3.324508 -43.316185 -3.643352 0.000000 0.000000 0.000000 -3.434218 0.079677 2.943142 6.538749 -13.655983 -10.961522 12.959563 -27.474412 -28.727065 -1.614982 39.891156 -4.649952 0.000000 0.000000 0.000000 
2.447092 36.614704 36.849884 -179.975553 3.061159 -179.791848 -3.925142 -3.432831 9.420711 -6.275688 -4.138412 -17.049356 16.417661 9.968577 20.717359 -3.926251 2.171324 11.598222 0.000000 0.000000 0.000000 1.544087 -0.489810 5.865381 -0.879446 4.499284 -8.808919 -8.255990 0.292663 13.925503 3.871279 5.247347 10.834966 0.000000 0.000000 0.000000 0.301262 0.778553 -3.010737 -3.822244 4.472836 -6.239814 -0.713085 -3.530299 3.550424 -0.010091 -0.004538 0.057752 -1.365606 -1.624513 6.185176 1.085306 -4.015508 6.286137 0.000000 0.000000 0.000000 0.196647 -0.618188 3.289026 7.188536 1.413059 -4.854657 -0.236853 20.943327 -39.831256 -3.155218 -43.331205 -3.610904 0.000000 0.000000 0.000000 -3.390331 0.117187 2.994129 6.636232 -13.486108 -10.971899 12.946328 -27.866864 -28.873815 -1.536162 40.006788 -4.473410 0.000000 0.000000 0.000000 
